<?xml version="1.0" encoding="UTF-8"?>
<svg id="Layer_1" data-name="Layer 1" xmlns="http://www.w3.org/2000/svg" viewBox="-3.725 0 100 100">
  <defs>
    <style>
      .cls-1 {
        fill: #252626;
      }
    </style>
  </defs>
  <path class="cls-1" d="M.61,60.73c.49-3.08,2.79-5.61,5.3-7.19,4.28-2.87,9.15-3.06,14.26-2.94,2.06.25,3.65-.06,5.12-1.63,1.4-1.32,3.11-2.34,5.04-2.93,5.36-1.6,9.7-1.62,15.41-1.69,6.77,0,13.44.73,20.17,1.46,4.98.52,10.54,1.76,14.73,4.23,2.61,1.31,4.08,3.38,4.1,6.33.12,2.1.15,4.33-.21,6.45-.34,2.3-1.1,4.36-1.76,6.51-1.33,4.76-3.05,9.68-5.66,13.95-3.01,5.26-6.81,10.17-11.88,13.67-2.82,1.96-6.19,2.61-9.55,2.82-4.54.57-9.46.03-14.1-1.62-2.93-1.04-5.36-2.38-7.72-4.58-1.47-1.22-2.62-2.69-3.74-4.2-1.79-2.31-3.56-4.31-4.91-6.99-1.17-2.72-3.3-2.8-5.86-3.16-1.46-.24-3.11-.34-4.65-.41-2.69-.12-5.3-.85-7.59-2.27-1.54-.98-2.81-2.27-4.06-3.52-1.07-1.11-2.1-2.27-2.58-3.76-.5-1.43-.51-3.07-.4-4.41.12-1.3.33-2.71.54-4.04v-.08s.01,0,.01,0ZM40.65,77.94c.52,5.68,6.19,7.76,11.32,7.68,3.55-.06,6.77-2.37,8.95-5.01,4.79-6.06,1.79-13.64-5.85-14.65-4.44-.89-9.23-.04-12.46,3.36-2.11,2.21-2.36,5.69-1.97,8.51l.02.11h0ZM29.09,51.66c.35,1.1,1.9,1.59,2.99,1.89,2.38.67,4.77,1.36,7.22,2.06,3.06.96,5.9,1.33,9.09,1.52,2.08.12,4.21.36,6.42.49,1.4.08,2.86,0,4.26-.04,2.16-.05,4.19.01,6.32-.32,4.18-.78,8.52-1.03,12.49-2.55,3.06-1.76-.85-4.05-2.71-4.54-2.19-.73-5.31-1.03-7.83-1.33-3.37-.28-6.56-.61-9.85-.95-5.73-.39-11.54-.9-17.41-.56-1.9.1-4.7.49-6.9.97-1.77.36-4.57,1.05-4.11,3.29l.02.06ZM8.24,64.39c.09,2.03,1.86,3.78,3.5,4.93,1.54,1.04,3.35,1.14,5.28,1.23,1.57,0,3.74.24,4.84-1.07.57-.91.19-2.09.19-3.13-.15-2.14-.13-4.31-.02-6.46.03-1.33-.42-2.05-1.76-2.07-4.43.26-11.72.69-12.03,6.47v.08Z"/>
  <path class="cls-1" d="M81.48,37.96l-.66.43-.45.34c-.07.06-.16.14-.24.21-.41.37-.44.23-1,.65-.19.14-.33.32-.53.45l-.45.32c-.25.17-.43.39-.75.44-.25.16-.51.34-.73.56l-.64.61c-.62.59-.43.04-1.55.92-.21.17-.45.32-.68.46l-.73.45-.26.09-.38.24c-.13.08-.26.15-.4.22-.19.13-.41.29-.62.36-.58.2-.04.03-.64.32l-.42.2-.34.16-.32.15c-.11.05-.26.16-.38.24-.55.41-.44.13-.77.32-.13.08-.22.12-.35.18-.57.26-.27.17-.71.37l-.39.18c-.46.21-.36.32-.63.46-.75.39-.26.29-.85.53-.51.21-.54.38-.93.67-.04.03-.2.01-.23.04-.33.3-.23.3-.64.43l-.44.34c-.18.14-.35.23-.56.34-.12.07-.29.26-.42.32-.58.25-.1.09-.72.59-.08.06-.21.19-.28.23-.59.28-.64.24-1.23.56-.07.04-.18.11-.24.16-.62.6-.37.15-.92.67-.09.08-.22.14-.33.2-.48.29-.6.49-.91.68-.19.11-.33.21-.5.35-.09.08-.22.1-.34.19l-.51.38c.23-.17-1.1.57-.98.51l-.37.18-.31.15c-.11.05-.24.17-.36.23l-.65.37c-.32-.13-.24.22-.79.21-.21.11-.44.21-.67.19l-.28-.02c-.22-.01-.87-.42-1.13-.6l-.4-.28c-.05-.04-.19-.1-.24-.14l-.62-.56c-.13-.12-.23-.22-.37-.27l-.27-.1c-.2-.24-.42-.49-.59-.75l-.64-1.02c-.14-.23-.27-.49-.38-.74l-.19-.42c-.05-.12-.13-.27-.2-.37l-.39-.57-.79-1.15c-.05-.08-.17-.2-.23-.27l-.51-.62-.6-.72-.34-.44-.38-.49-.44-.65-.31-.37c-.47-.48-.35-.61-.66-1.07-.17-.13-.52-.61-.62-.78l-.5-.94c-.05-.1-.16-.25-.22-.32-.06-.04-.19-.12-.21-.18l-.25-.63c-.05-.13-.13-.23-.26-.31l-.34-.59-.38-.67c-.05-.09-.18-.22-.26-.31l-.29-.31c-.07-.07-.14-.25-.18-.35l-.14-.07-.25-.47c.11.2-.52-.71-.48-.6l-.31-.29c-.08-.07-.17-.18-.21-.26l-.15-.27-.29-.3-.19-.33c-.23-.39-.38-.8-.5-1.25-.06-.22-.22-.53-.4-.66l-.39-.46c-.12-.14-.19-.65-.27-.94l-.14-.49c-.08-.28-.11-.55-.11-.85l-.23-.36c-.06-.09-.15-.27-.19-.37l-.42-1.19c-.13-.37-.03-.74.24-1.02.08-.24.18-.47.32-.69l.26-.42c.34-.55.81-.9,1.33-1.26.61-.42.67-.39,1.35-.71l.53-.24.74-.32c.11-.05.27-.22.37-.29l1.01-.79.28-.21.63-.48.38-.29c.19-.14.37-.29.56-.42l.79-.52c.14-.09.3-.23.43-.3l.57-.29c.15-.08.34-.15.48-.24l.92-.57,1.26-.68.56-.31.55-.31.71-.4c.38-.21.73-.42,1.09-.67.2-.14.41-.26.62-.38.65-.36.7-.47,1.44-.84l.3-.15.82-.42.95-.48.37-.21.4-.23.45-.25.53-.28.38-.2c.41-.21.78-.45,1.16-.7l.38-.2.52-.28c.21-.12.43-.21.63-.34l.76-.5.25-.15.73-.44c.64-.39,1.26-.75,1.82-1.27.95-.88.67-.47,1.56-1.11l.74-.53.47-.34c.33-.24.7-.43,1.07-.61.37-.25.74-.49,1.12-.71.2-.11.41-.22.59-.36l1.18-.89c.15-.11.3-.24.46-.33l.59-.31.55-.39c.29-.21.6-.38.91-.56l.33-.2c.21-.12.43-.28.66-.37l.71-.27.44-.17c.09-.03.27-.05.38-.05l.71-.04.58-.06c.23-.03.43,0,.65-.05s.44-.06.66-.04l.52.05c.17.02.44.05.59.12l1.34.64c.99.78,1.01.74,1.77,1.73.25.33.42.72.65,1.06.3.44.55.88.77,1.37.05.12.11.26.17.37l.47.87.39.56c.05.06.32.68.44.9l.32.61c.06.12.31.26.39.37.27.43.65,1.18.84,1.4l.33.38c.2.23.38.45.55.7.39.58.59.53.84.98l.4.75c.2.38.35.7.49,1.12.06.18.15.33.3.48.25.58.27.95.54,1.48l.19.39c.07.14.14.27.21.4l.21.37c.17.3.33.59.54.87s.4.57.59.86c.25.26.4.54.54.87.1.23.25.45.37.67l.33.6c.13.23.25.43.39.66.12.2.2.43.3.64.15.32.28.61.32.97.02.22.06.46.06.68,0,.44-.06.87-.24,1.28l-.19.44c-.05.13-.18.3-.26.43l-.48.78c-.33.54-1.67,2.35-2.1,2.74l-.77.7-.35.16-.45.38c-.06.05-.54.33-.83.53l-.28.2c-.29.2-.75.42-1.09.55l-.44.16c-.11.04-.27.25-.37.31-.19.11-.35.19-.54.28-.55.26-.36.29-.85.38-.11.02-.22.11-.32.18l-.43.31-.46.33c-.21.15-.41.3-.64.41ZM78.06,16.94c.04-.08.09-.19.1-.25l.11-.47c.03-.12.04-.3.05-.44.08-.71.1-1.4.07-2.11-.01-.35-.01-.69-.07-1.05-.02-.16-.12-.35-.16-.51s-.06-.36-.12-.49l-.14-.32c-.12-.29-.27-.59-.56-.73-.09-.25-.24-.52-.5-.62l-.56-.21-.52-.19c-.2-.07-.42-.14-.63-.18-.84-.16-1.19-.23-2.04-.22-.19,0-.45.04-.62.09l-.72.24c-.51.17-.88.17-1.41.62-.38.32-1.15,1.08-1.18,1.55-.04.64-.06,1.22-.07,1.85,0,.32.11.66.11.98v.53c.01.3.17.77.34,1.02l.37.55c.24.36.49.71.77,1.05l.34.41.48.55c.33.37.7.7,1.18.78l.31.1.45.13c.16.04.67-.02.85-.08l.89-.26c.22-.07.47-.13.67-.23l.3-.15c.35-.17.51-.35.71-.38.3-.22.77-.7.93-1.04l.25-.53Z"/>
  <g>
    <path class="cls-1" d="M20.95,8.36c.47.06.54.05.59.07,2.65,1.25,5.3,2.49,7.92,3.78.35.17.61.58.84.92.53.8.46,1.74-.17,2.29-.69.61-1.38.48-2.14.06-2.03-1.14-4.11-2.2-6.14-3.34-.67-.37-1.39-.77-1.86-1.34-.31-.38-.46-1.22-.25-1.61.25-.47.97-.68,1.22-.83h0Z"/>
    <path class="cls-1" d="M25.37,22.93c.86.12,1.38.58,1.57,1.35.21.86-.08,1.6-.88,1.97-.76.34-1.58.56-2.4.75-1.82.4-3.65.75-5.47,1.12-.06.01-.12.02-.18.03-1.43.21-2.31-.17-2.51-1.1-.19-.88.44-1.88,1.69-2.23,2.54-.7,5.12-1.26,7.69-1.88.17-.04.36,0,.48,0h0Z"/>
    <path class="cls-1" d="M45.97,9.72c.04-.11.1-.35.21-.56,1-1.77,2.01-3.53,3.03-5.29.12-.21.27-.4.43-.57.72-.79,1.49-.97,2.22-.52.73.44,1.01,1.26.67,2.2-.18.5-.45.98-.72,1.44-.82,1.39-1.66,2.76-2.51,4.14-.19.3-.41.59-.67.83-.54.49-1.17.6-1.82.26-.73-.37-.97-1.01-.83-1.92Z"/>
    <path class="cls-1" d="M28.14,38.24c-.16.23-.4.74-.79,1.06-.84.68-1.74,1.28-2.65,1.87-.65.42-1.35.52-1.99-.06-.56-.51-.72-1.45-.1-2.12.93-1,1.95-1.98,3.11-2.67,1.18-.7,2.55.32,2.43,1.92h0Z"/>
    <path class="cls-1" d="M37.61,3.66c-.39.35-.75.84-1.22,1.05-.61.27-1.23-.03-1.5-.64-.34-.76-.62-1.56-.76-2.38-.14-.81.31-1.38,1.1-1.63.76-.24,1.64.14,1.9.93.25.78.31,1.63.49,2.66h0Z"/>
  </g>
</svg>